<?xml version="1.0" encoding="UTF-8" standalone="no"?>
<svg
   xmlns:dc="http://purl.org/dc/elements/1.1/"
   xmlns:cc="http://creativecommons.org/ns#"
   xmlns:rdf="http://www.w3.org/1999/02/22-rdf-syntax-ns#"
   xmlns:svg="http://www.w3.org/2000/svg"
   xmlns="http://www.w3.org/2000/svg"
   xmlns:sodipodi="http://sodipodi.sourceforge.net/DTD/sodipodi-0.dtd"
   xmlns:inkscape="http://www.inkscape.org/namespaces/inkscape"
   version="1.0"
   width="1000.000000pt"
   height="1000.000000pt"
   viewBox="0 0 1000.000000 1000.000000"
   preserveAspectRatio="xMidYMid meet"
   id="svg28"
   sodipodi:docname="icon-2.svg"
   inkscape:version="0.92.0 r15299">
  <defs
     id="defs32" />
  <sodipodi:namedview
     pagecolor="#ffffff"
     bordercolor="#666666"
     borderopacity="1"
     objecttolerance="10"
     gridtolerance="10"
     guidetolerance="10"
     inkscape:pageopacity="0"
     inkscape:pageshadow="2"
     inkscape:window-width="1801"
     inkscape:window-height="1051"
     id="namedview30"
     showgrid="false"
     inkscape:zoom="0.708"
     inkscape:cx="443.39409"
     inkscape:cy="873.98898"
     inkscape:window-x="-9"
     inkscape:window-y="-9"
     inkscape:window-maximized="1"
     inkscape:current-layer="svg28" />
  <metadata
     id="metadata2">
Created by potrace 1.13, written by Peter Selinger 2001-2015
<rdf:RDF>
  <cc:Work
     rdf:about="">
    <dc:format>image/svg+xml</dc:format>
    <dc:type
       rdf:resource="http://purl.org/dc/dcmitype/StillImage" />
  </cc:Work>
</rdf:RDF>
</metadata>
  <g
     transform="translate(0.000000,1000.000000) scale(0.100000,-0.100000)"
     fill="#000000"
     stroke="none"
     id="g26">
    <path
       d="M1309 9002 c-105 -27 -176 -100 -199 -205 -11 -53 -11 -3790 0 -5562 l5 -790 34 -62 c35 -66 79 -103 153 -131 40 -16 325 -17 3653 -20 4060 -3 3686 -10 3782 73 37 32 58 62 77 107 l26 63 -2 3165 c-3 2919 -4 3168 -20 3201 -22 51 -84 116 -132 142 -36 19 -59 22 -201 24 -88 2 -1727 4 -3642 6 -2815 2 -3493 0 -3534 -11z m3841 -2708 c79 -20 228 -97 292 -152 119 -100 198 -231 239 -391 28 -110 23 -290 -9 -391 -73 -223 -249 -403 -465 -475 -275 -91 -541 -29 -748 175 -70 69 -94 101 -128 170 -60 123 -83 222 -84 355 -1 167 38 284 142 432 163 231 481 347 761 277z m2258 0 c119 -27 249 -103 344 -201 105 -108 160 -216 192 -375 66 -325 -107 -666 -408 -804 -133 -61 -335 -82 -476 -49 -145 34 -311 143 -405 264 -135 176 -186 448 -123 657 28 95 92 211 155 283 175 200 453 287 721 225z m-4561 1 c162 -38 344 -160 433 -290 206 -301 172 -695 -84 -951 -107 -107 -219 -165 -379 -198 -189 -39 -365 -4 -534 107 -120 79 -217 194 -271 322 -26 64 -62 237 -62 303 0 204 125 449 294 576 161 121 413 176 603 131z"
       id="path4" />
    <path
       d="M4830 6256 c-137 -33 -249 -96 -342 -190 -120 -122 -186 -273 -195 -448 -19 -340 192 -627 519 -710 68 -17 102 -20 193 -15 184 8 312 65 446 197 134 132 199 285 202 470 1 62 -4 129 -12 162 -13 52 -16 56 -28 40 -11 -13 -13 -14 -11 -2 3 19 -23 60 -39 60 -19 0 -27 21 -12 32 11 8 11 9 -2 5 -11 -4 -55 33 -132 109 -64 63 -121 114 -127 114 -6 0 -8 5 -5 10 3 6 0 10 -8 10 -8 0 -34 18 -58 40 -24 22 -50 38 -58 35 -9 -3 -11 0 -7 10 3 8 1 15 -4 15 -6 0 -10 11 -10 24 0 13 -8 27 -17 31 -34 14 -236 15 -293 1z"
       id="path6" />
    <path
       d="m 6664.6949,4959.8475 c 114.0923,-275.9578 313.1414,-810.2289 867.4576,-113.5933 79,29 257.3051,120.1526 336.3051,178.1526 161,120 263,327 264,531 12.266,1158.7919 -5343.4781,4702.1852 -1467.7627,-595.5593 z"
       id="path8"
       inkscape:connector-curvature="0"
       sodipodi:nodetypes="ccccc" />
    <path
       d="m 2252.9661,4698.0509 c 136,-136 259,-189 451,-197 168,-8 268,18 399,102 147,95 451.2712,533.6101 498.2712,705.6101 998.2273,1394.3795 -3199.51973,1701.2177 -1348.2712,-610.6101 z"
       id="path10"
       inkscape:connector-curvature="0"
       sodipodi:nodetypes="ccccc" />
    <path
       d="M4177 1712 c-25 -28 -23 -116 3 -142 16 -16 33 -20 95 -20 68 0 75 2 75 20 0 18 -7 20 -75 20 l-75 0 0 50 0 50 75 0 c68 0 75 2 75 20 0 18 -7 20 -78 20 -64 0 -82 -4 -95 -18z"
       id="path12" />
    <path
       d="M4387 1712 c-11 -12 -17 -36 -17 -70 0 -75 20 -92 108 -92 93 0 107 11 107 88 0 83 -10 92 -105 92 -62 0 -80 -4 -93 -18z"
       id="path14" />
    <path
       d="M4628 1719 c-26 -15 -26 -129 0 -152 27 -25 153 -24 175 1 24 27 23 123 -1 145 -21 19 -145 24 -174 6z"
       id="path16" />
    <path
       d="M5241 1713 c-20 -16 -25 -31 -27 -71 -4 -80 10 -92 110 -92 50 0 87 5 94 12 17 17 16 132 -1 147 -8 6 -45 13 -83 17 -60 5 -72 4 -93 -13z"
       id="path18" />
    <path
       d="M5456 1722 c-2 -4 -3 -38 -2 -75 2 -91 12 -100 112 -98 43 1 84 7 91 13 9 7 13 36 13 84 0 67 -2 74 -20 74 -18 0 -20 -7 -20 -70 l0 -71 -67 4 -68 3 -5 70 c-3 42 -10 70 -17 71 -7 2 -14 -1 -17 -5z"
       id="path20" />
    <path
       d="M5710 1700 c-30 -30 -28 -103 5 -135 21 -22 33 -25 100 -25 68 0 75 2 75 20 0 17 -8 19 -77 22 l-78 3 -3 48 -3 47 80 0 c74 0 81 2 81 20 0 18 -7 20 -80 20 -67 0 -83 -3 -100 -20z"
       id="path22" />
    <path
       d="M5910 1630 c0 -83 1 -90 20 -90 16 0 20 7 20 35 l0 35 70 0 70 0 0 -35 c0 -28 4 -35 20 -35 19 0 20 7 20 90 0 83 -1 90 -20 90 -16 0 -20 -7 -20 -35 l0 -35 -70 0 -70 0 0 35 c0 28 -4 35 -20 35 -19 0 -20 -7 -20 -90z"
       id="path24" />
  </g>
</svg>
