<?xml version="1.0" standalone="no"?>
<!DOCTYPE svg PUBLIC "-//W3C//DTD SVG 20010904//EN"
 "http://www.w3.org/TR/2001/REC-SVG-20010904/DTD/svg10.dtd">
<svg version="1.0" xmlns="http://www.w3.org/2000/svg"
 width="210.000000pt" height="210.000000pt" viewBox="0 0 210.000000 210.000000"
 preserveAspectRatio="xMidYMid meet">
<metadata>
Created by potrace 1.13, written by Peter Selinger 2001-2015
</metadata>
<g transform="translate(0.000000,210.000000) scale(0.100000,-0.100000)"
fill="#000000" stroke="none">
<path d="M865 1816 c-155 -50 -276 -139 -360 -265 -167 -252 -145 -584 53
-803 l37 -41 5 299 5 299 34 70 c47 96 127 175 228 223 76 36 81 37 188 37 98
-1 116 -4 170 -28 83 -39 155 -96 195 -155 19 -29 38 -52 41 -52 4 0 46 21 93
46 l87 46 -20 32 c-97 152 -239 257 -408 301 -90 24 -262 19 -348 -9z"/>
<path d="M991 1529 c-73 -12 -143 -53 -201 -116 -81 -89 -84 -101 -88 -468
l-3 -321 38 -21 c21 -12 62 -31 91 -42 l52 -21 0 166 c0 154 1 166 18 159 138
-60 283 -38 387 57 264 241 59 664 -294 607z m117 -184 c76 -32 112 -86 112
-167 0 -67 -32 -117 -93 -147 -68 -33 -132 -24 -191 28 -28 24 -56 86 -56 122
0 71 59 148 128 169 41 12 59 11 100 -5z"/>
<path d="M1420 913 c-37 -53 -107 -111 -179 -145 -54 -26 -81 -32 -158 -36
l-93 -5 0 -103 0 -104 54 0 c136 0 290 50 398 130 65 47 178 172 178 196 0 6
-40 32 -88 57 l-88 45 -24 -35z"/>
</g>
</svg>
