<?xml version="1.0" standalone="no"?>
<!DOCTYPE svg PUBLIC "-//W3C//DTD SVG 20010904//EN"
 "http://www.w3.org/TR/2001/REC-SVG-20010904/DTD/svg10.dtd">
<svg version="1.0" xmlns="http://www.w3.org/2000/svg"
 width="1000.000000pt" height="1000.000000pt" viewBox="0 0 1000.000000 1000.000000"
 preserveAspectRatio="xMidYMid meet">
<metadata>
Created by potrace 1.13, written by Peter Selinger 2001-2015
</metadata>
<g transform="translate(0.000000,1000.000000) scale(0.100000,-0.100000)"
fill="#000000" stroke="none">
<path d="M1309 9002 c-105 -27 -176 -100 -199 -205 -11 -53 -11 -3790 0 -5562
l5 -790 34 -62 c35 -66 79 -103 153 -131 40 -16 325 -17 3653 -20 4060 -3
3686 -10 3782 73 37 32 58 62 77 107 l26 63 -2 3165 c-3 2919 -4 3168 -20
3201 -22 51 -84 116 -132 142 -36 19 -59 22 -201 24 -88 2 -1727 4 -3642 6
-2815 2 -3493 0 -3534 -11z m3841 -2708 c79 -20 228 -97 292 -152 119 -100
198 -231 239 -391 28 -110 23 -290 -9 -391 -73 -223 -249 -403 -465 -475 -275
-91 -541 -29 -748 175 -70 69 -94 101 -128 170 -60 123 -83 222 -84 355 -1
167 38 284 142 432 163 231 481 347 761 277z m2258 0 c119 -27 249 -103 344
-201 105 -108 160 -216 192 -375 66 -325 -107 -666 -408 -804 -133 -61 -335
-82 -476 -49 -145 34 -311 143 -405 264 -135 176 -186 448 -123 657 28 95 92
211 155 283 175 200 453 287 721 225z m-4561 1 c162 -38 344 -160 433 -290
206 -301 172 -695 -84 -951 -107 -107 -219 -165 -379 -198 -189 -39 -365 -4
-534 107 -120 79 -217 194 -271 322 -26 64 -62 237 -62 303 0 204 125 449 294
576 161 121 413 176 603 131z"/>
<path d="M4830 6256 c-137 -33 -249 -96 -342 -190 -120 -122 -186 -273 -195
-448 -19 -340 192 -627 519 -710 68 -17 102 -20 193 -15 184 8 312 65 446 197
134 132 199 285 202 470 1 62 -4 129 -12 162 -13 52 -16 56 -28 40 -11 -13
-13 -14 -11 -2 3 19 -23 60 -39 60 -19 0 -27 21 -12 32 11 8 11 9 -2 5 -11 -4
-55 33 -132 109 -64 63 -121 114 -127 114 -6 0 -8 5 -5 10 3 6 0 10 -8 10 -8
0 -34 18 -58 40 -24 22 -50 38 -58 35 -9 -3 -11 0 -7 10 3 8 1 15 -4 15 -6 0
-10 11 -10 24 0 13 -8 27 -17 31 -34 14 -236 15 -293 1z"/>
<path d="M7075 6255 c-132 -34 -235 -93 -330 -189 -286 -291 -253 -789 68
-1032 188 -142 432 -181 645 -103 79 29 109 46 188 104 161 120 263 327 264
531 0 91 -10 165 -22 158 -5 -3 -6 5 -2 19 3 14 1 34 -6 44 -11 17 -11 17 -6
-1 4 -12 -5 -7 -26 15 -18 19 -31 37 -31 40 1 3 -8 5 -21 4 -19 -3 -23 1 -18
18 3 12 1 18 -5 14 -6 -4 -18 5 -27 18 -9 14 -30 38 -45 53 -71 67 -165 148
-191 163 -15 10 -34 27 -42 38 -8 12 -18 18 -21 14 -4 -3 -7 2 -7 13 0 15 -2
16 -10 4 -7 -11 -11 -9 -19 13 -6 16 -11 35 -11 42 0 8 -17 19 -37 24 -52 15
-227 12 -288 -4z"/>
<path d="M2524 6250 c-94 -24 -131 -41 -211 -93 -367 -239 -422 -760 -113
-1067 136 -136 259 -189 451 -197 168 -8 268 18 399 102 147 95 250 237 297
409 25 92 22 273 -5 351 -15 42 -20 49 -16 25 l5 -35 -17 33 c-9 17 -21 32
-25 32 -7 0 -118 109 -195 193 -14 14 -59 51 -131 107 -29 22 -53 45 -53 51 0
6 -7 9 -15 5 -18 -6 -45 30 -45 60 0 31 -20 36 -145 40 -83 2 -127 -2 -181
-16z"/>
<path d="M4177 1712 c-25 -28 -23 -116 3 -142 16 -16 33 -20 95 -20 68 0 75 2
75 20 0 18 -7 20 -75 20 l-75 0 0 50 0 50 75 0 c68 0 75 2 75 20 0 18 -7 20
-78 20 -64 0 -82 -4 -95 -18z"/>
<path d="M4387 1712 c-11 -12 -17 -36 -17 -70 0 -75 20 -92 108 -92 93 0 107
11 107 88 0 83 -10 92 -105 92 -62 0 -80 -4 -93 -18z"/>
<path d="M4628 1719 c-26 -15 -26 -129 0 -152 27 -25 153 -24 175 1 24 27 23
123 -1 145 -21 19 -145 24 -174 6z"/>
<path d="M5241 1713 c-20 -16 -25 -31 -27 -71 -4 -80 10 -92 110 -92 50 0 87
5 94 12 17 17 16 132 -1 147 -8 6 -45 13 -83 17 -60 5 -72 4 -93 -13z"/>
<path d="M5456 1722 c-2 -4 -3 -38 -2 -75 2 -91 12 -100 112 -98 43 1 84 7 91
13 9 7 13 36 13 84 0 67 -2 74 -20 74 -18 0 -20 -7 -20 -70 l0 -71 -67 4 -68
3 -5 70 c-3 42 -10 70 -17 71 -7 2 -14 -1 -17 -5z"/>
<path d="M5710 1700 c-30 -30 -28 -103 5 -135 21 -22 33 -25 100 -25 68 0 75
2 75 20 0 17 -8 19 -77 22 l-78 3 -3 48 -3 47 80 0 c74 0 81 2 81 20 0 18 -7
20 -80 20 -67 0 -83 -3 -100 -20z"/>
<path d="M5910 1630 c0 -83 1 -90 20 -90 16 0 20 7 20 35 l0 35 70 0 70 0 0
-35 c0 -28 4 -35 20 -35 19 0 20 7 20 90 0 83 -1 90 -20 90 -16 0 -20 -7 -20
-35 l0 -35 -70 0 -70 0 0 35 c0 28 -4 35 -20 35 -19 0 -20 -7 -20 -90z"/>
</g>
</svg>
